<svg width="22" height="22" viewBox="0 0 22 22" fill="none" xmlns="http://www.w3.org/2000/svg">
<path d="M17.1875 11.0002C17.1874 9.63814 16.7379 8.31415 15.9087 7.23359C15.0795 6.15302 13.9169 5.37626 12.6012 5.02378C11.2856 4.6713 9.89036 4.7628 8.63199 5.28407C7.37362 5.80535 6.32241 6.72729 5.64141 7.90689C4.9604 9.08649 4.68765 10.4578 4.86546 11.8082C5.04327 13.1587 5.6617 14.4127 6.62484 15.3758C7.58798 16.3389 8.842 16.9573 10.1924 17.1351C11.5428 17.3129 12.9142 17.0401 14.0938 16.359C14.2516 16.2693 14.4385 16.2456 14.6137 16.2932C14.7889 16.3408 14.9382 16.4557 15.029 16.6129C15.1197 16.7702 15.1446 16.9569 15.0982 17.1324C15.0518 17.3079 14.9379 17.458 14.7813 17.5498C13.3394 18.3824 11.6631 18.7159 10.0123 18.4987C8.36153 18.2815 6.82857 17.5256 5.65119 16.3483C4.4738 15.171 3.71779 13.6381 3.50042 11.9874C3.28304 10.3366 3.61644 8.6603 4.44892 7.21835C5.28139 5.7764 6.56641 4.64944 8.10467 4.01227C9.64293 3.37509 11.3485 3.26331 12.9567 3.69426C14.565 4.12521 15.9861 5.0748 16.9997 6.39576C18.0132 7.71671 18.5626 9.3352 18.5625 11.0002C18.5625 11.1825 18.4901 11.3574 18.3612 11.4863C18.2322 11.6153 18.0574 11.6877 17.875 11.6877C17.6927 11.6877 17.5178 11.6153 17.3889 11.4863C17.2599 11.3574 17.1875 11.1825 17.1875 11.0002Z" fill="black"/>
<path d="M14.4375 11.9165C14.4375 12.2812 14.5824 12.6309 14.8402 12.8888C15.0981 13.1466 15.4478 13.2915 15.8125 13.2915C16.1772 13.2915 16.5269 13.1466 16.7848 12.8888C17.0426 12.6309 17.1875 12.2812 17.1875 11.9165H18.5625C18.5625 12.6458 18.2728 13.3453 17.757 13.861C17.2413 14.3768 16.5418 14.6665 15.8125 14.6665C15.0832 14.6665 14.3837 14.3768 13.868 13.861C13.3522 13.3453 13.0625 12.6458 13.0625 11.9165H14.4375Z" fill="black"/>
<path d="M13.0625 11C13.0625 10.453 12.8452 9.92839 12.4584 9.54159C12.0716 9.1548 11.547 8.9375 11 8.9375C10.453 8.9375 9.92839 9.1548 9.54159 9.54159C9.1548 9.92839 8.9375 10.453 8.9375 11C8.9375 11.547 9.1548 12.0716 9.54159 12.4584C9.92839 12.8452 10.453 13.0625 11 13.0625C11.547 13.0625 12.0716 12.8452 12.4584 12.4584C12.8452 12.0716 13.0625 11.547 13.0625 11ZM14.4375 11C14.4375 11.9117 14.0753 12.786 13.4307 13.4307C12.786 14.0753 11.9117 14.4375 11 14.4375C10.0883 14.4375 9.21398 14.0753 8.56932 13.4307C7.92466 12.786 7.5625 11.9117 7.5625 11C7.5625 10.0883 7.92466 9.21398 8.56932 8.56932C9.21398 7.92466 10.0883 7.5625 11 7.5625C11.9117 7.5625 12.786 7.92466 13.4307 8.56932C14.0753 9.21398 14.4375 10.0883 14.4375 11ZM18.5625 10.3125V11.9167H17.1875V10.3125H18.5625Z" fill="black"/>
<path d="M13.0625 12.8333V8.25C13.0625 8.06766 13.1349 7.8928 13.2639 7.76386C13.3928 7.63493 13.5677 7.5625 13.75 7.5625C13.9323 7.5625 14.1072 7.63493 14.2361 7.76386C14.3651 7.8928 14.4375 8.06766 14.4375 8.25V12.8333C14.4375 13.0157 14.3651 13.1905 14.2361 13.3195C14.1072 13.4484 13.9323 13.5208 13.75 13.5208C13.5677 13.5208 13.3928 13.4484 13.2639 13.3195C13.1349 13.1905 13.0625 13.0157 13.0625 12.8333Z" fill="black"/>
</svg>
