<svg width="22" height="22" viewBox="0 0 22 22" fill="none" xmlns="http://www.w3.org/2000/svg">
<path d="M7.14999 1.8335H14.85C17.7833 1.8335 20.1667 4.21683 20.1667 7.15016V14.8502C20.1667 16.2602 19.6065 17.6125 18.6094 18.6096C17.6124 19.6067 16.2601 20.1668 14.85 20.1668H7.14999C4.21666 20.1668 1.83333 17.7835 1.83333 14.8502V7.15016C1.83333 5.7401 2.39348 4.38778 3.39054 3.39071C4.38761 2.39364 5.73993 1.8335 7.14999 1.8335ZM6.96666 3.66683C6.09145 3.66683 5.25208 4.01451 4.63321 4.63338C4.01434 5.25225 3.66666 6.09161 3.66666 6.96683V15.0335C3.66666 16.8577 5.14249 18.3335 6.96666 18.3335H15.0333C15.9085 18.3335 16.7479 17.9858 17.3668 17.3669C17.9857 16.7481 18.3333 15.9087 18.3333 15.0335V6.96683C18.3333 5.14266 16.8575 3.66683 15.0333 3.66683H6.96666ZM15.8125 5.04183C16.1164 5.04183 16.4078 5.16255 16.6227 5.37744C16.8376 5.59232 16.9583 5.88377 16.9583 6.18766C16.9583 6.49156 16.8376 6.783 16.6227 6.99789C16.4078 7.21277 16.1164 7.3335 15.8125 7.3335C15.5086 7.3335 15.2172 7.21277 15.0023 6.99789C14.7874 6.783 14.6667 6.49156 14.6667 6.18766C14.6667 5.88377 14.7874 5.59232 15.0023 5.37744C15.2172 5.16255 15.5086 5.04183 15.8125 5.04183ZM11 6.41683C12.2156 6.41683 13.3814 6.89971 14.2409 7.75926C15.1004 8.6188 15.5833 9.78459 15.5833 11.0002C15.5833 12.2157 15.1004 13.3815 14.2409 14.2411C13.3814 15.1006 12.2156 15.5835 11 15.5835C9.78442 15.5835 8.61863 15.1006 7.75909 14.2411C6.89955 13.3815 6.41666 12.2157 6.41666 11.0002C6.41666 9.78459 6.89955 8.6188 7.75909 7.75926C8.61863 6.89971 9.78442 6.41683 11 6.41683ZM11 8.25016C10.2706 8.25016 9.57118 8.53989 9.05545 9.05562C8.53973 9.57134 8.24999 10.2708 8.24999 11.0002C8.24999 11.7295 8.53973 12.429 9.05545 12.9447C9.57118 13.4604 10.2706 13.7502 11 13.7502C11.7293 13.7502 12.4288 13.4604 12.9445 12.9447C13.4603 12.429 13.75 11.7295 13.75 11.0002C13.75 10.2708 13.4603 9.57134 12.9445 9.05562C12.4288 8.53989 11.7293 8.25016 11 8.25016Z" fill="black"/>
</svg>
