<svg width="100" height="100" viewBox="0 0 100 100" fill="none" xmlns="http://www.w3.org/2000/svg">
<path d="M12.5 85.7917L27.4583 70.8333H75C77.2101 70.8333 79.3298 69.9554 80.8926 68.3926C82.4554 66.8298 83.3333 64.7101 83.3333 62.5V25C83.3333 22.7899 82.4554 20.6702 80.8926 19.1074C79.3298 17.5446 77.2101 16.6667 75 16.6667H20.8333C18.6232 16.6667 16.5036 17.5446 14.9408 19.1074C13.378 20.6702 12.5 22.7899 12.5 25V85.7917ZM12.5 91.6667H8.33334V25C8.33334 21.6848 9.6503 18.5054 11.9945 16.1612C14.3387 13.817 17.5181 12.5 20.8333 12.5H75C78.3152 12.5 81.4946 13.817 83.8388 16.1612C86.1831 18.5054 87.5 21.6848 87.5 25V62.5C87.5 65.8152 86.1831 68.9946 83.8388 71.3388C81.4946 73.683 78.3152 75 75 75H29.1667L12.5 91.6667ZM25 29.1667H70.8333V33.3333H25V29.1667ZM25 41.6667H70.8333V45.8333H25V41.6667ZM25 54.1667H58.3333V58.3333H25V54.1667Z" fill="url(#paint0_linear_81_144)"/>
<defs>
<linearGradient id="paint0_linear_81_144" x1="47.9167" y1="12.5" x2="47.9167" y2="91.6667" gradientUnits="userSpaceOnUse">
<stop stop-color="#2563EB"/>
<stop offset="1" stop-color="white"/>
</linearGradient>
</defs>
</svg>
