<svg width="100" height="100" viewBox="0 0 100 100" fill="none" xmlns="http://www.w3.org/2000/svg">
<path d="M21.6209 46.7374L31.8292 51.0582C33.1209 48.4721 34.5278 45.9694 36.05 43.5499C37.5723 41.1305 39.2528 38.7777 41.0917 36.4916L34.6959 35.2666C34.2681 35.1582 33.8542 35.1707 33.4542 35.3041C33.0542 35.4374 32.6931 35.6638 32.3709 35.9832L21.6209 46.7374ZM35.1292 53.6999L46.9209 65.4749C50.2125 63.9888 53.525 62.0999 56.8584 59.8082C60.1917 57.5166 63.3973 54.8319 66.475 51.7541C70.9612 47.268 74.3889 42.4832 76.7584 37.3999C79.1278 32.3166 80.4598 26.4471 80.7542 19.7916C74.0986 20.086 68.2375 21.418 63.1709 23.7874C58.1098 26.1569 53.3348 29.5846 48.8459 34.0707C45.7709 37.1485 43.0875 40.3666 40.7959 43.7249C38.5042 47.0832 36.6153 50.4082 35.1292 53.6999ZM54.8792 39.4041C54.8792 37.6902 55.4903 36.2221 56.7125 34.9999C57.9375 33.7777 59.4236 33.1666 61.1709 33.1666C62.9181 33.1666 64.4028 33.7777 65.625 34.9999C66.8473 36.2221 67.4584 37.6902 67.4584 39.4041C67.4584 41.118 66.8473 42.5846 65.625 43.8041C64.4028 45.0235 62.9167 45.6346 61.1667 45.6374C59.4167 45.6402 57.9334 45.0291 56.7167 43.8041C55.5 42.5791 54.8889 41.1124 54.8834 39.4041M53.8042 79.0041L64.5584 68.2541C64.8778 67.9319 65.1056 67.5707 65.2417 67.1707C65.375 66.7707 65.3889 66.3569 65.2834 65.9291L64.0542 59.5332C61.7681 61.3721 59.4153 63.0485 56.9959 64.5624C54.5764 66.0763 52.0737 67.4791 49.4875 68.7707L53.8042 79.0041ZM84.65 15.9582C85.1167 23.6138 84.0334 30.6555 81.4 37.0832C78.7695 43.5138 74.6723 49.511 69.1084 55.0749L68.3834 55.7957L67.6625 56.5166L69.3459 65.0666C69.5709 66.1888 69.5292 67.2763 69.2209 68.3291C68.9098 69.3819 68.3486 70.3138 67.5375 71.1249L52.3625 86.2207L45.4542 69.9499L30.6042 55.0999L14.3334 48.1124L29.4042 33.0166C30.2153 32.2055 31.1514 31.6319 32.2125 31.2957C33.2737 30.9596 34.3653 30.9041 35.4875 31.1291L44.1959 32.8874C44.4625 32.6207 44.6889 32.3805 44.875 32.1666C45.0612 31.9527 45.2889 31.7124 45.5584 31.4457C51.125 25.8791 57.1181 21.7902 63.5375 19.1791C69.957 16.568 76.9917 15.4944 84.65 15.9582ZM21.3209 67.3624C22.9514 65.7346 24.932 64.9291 27.2625 64.9457C29.5931 64.9624 31.5737 65.7874 33.2042 67.4207C34.8348 69.0541 35.6459 71.0346 35.6375 73.3624C35.6292 75.6957 34.8098 77.6763 33.1792 79.3041C31.7625 80.7207 29.4917 81.9332 26.3667 82.9416C23.2417 83.9499 19.6237 84.6471 15.5125 85.0332C15.8987 80.9221 16.6098 77.3041 17.6459 74.1791C18.682 71.0541 19.907 68.7819 21.3209 67.3624ZM24.2959 70.3916C23.4931 71.1943 22.7445 72.5027 22.05 74.3166C21.3556 76.1305 20.8973 78.0013 20.675 79.9291C22.6028 79.7041 24.4737 79.2346 26.2875 78.5207C28.0987 77.8096 29.4056 77.0527 30.2084 76.2499C31.0417 75.4166 31.4667 74.4235 31.4834 73.2707C31.4973 72.1152 31.0875 71.1207 30.2542 70.2874C29.4209 69.4541 28.4278 69.0555 27.275 69.0916C26.1223 69.1249 25.1292 69.5582 24.2959 70.3916Z" fill="url(#paint0_linear_81_148)"/>
<defs>
<linearGradient id="paint0_linear_81_148" x1="49.5444" y1="15.8533" x2="49.5444" y2="86.2207" gradientUnits="userSpaceOnUse">
<stop stop-color="#2563EB"/>
<stop offset="1" stop-color="white"/>
</linearGradient>
</defs>
</svg>
