<svg width="58" height="71" viewBox="0 0 58 71" fill="none" xmlns="http://www.w3.org/2000/svg">
<path d="M2.90913 27.1631C8.11879 35.8753 41.4482 35.0455 49.9459 30.1467C51.6662 29.1551 54.1473 25.9451 55.6131 25.8279C56.328 26.4835 56.7049 26.5797 56.6958 27.6477C56.6025 38.3239 57.1344 49.1366 56.3309 59.7761C56.2376 61.0097 55.0869 62.8645 54.2622 63.7441C49.231 69.0556 38.2809 69.8191 31.1547 69.9992C21.873 70.0004 10.4808 70.184 2.94744 64.0146C0.64659 62.0352 0.0809596 58.5396 0.105552 55.6885C0.213074 43.0639 -0.00539454 30.432 0.0620925 17.8104C0.0809661 14.2493 -0.608213 8.73217 2.18564 6.15165C7.88315 0.938158 18.5518 0.0877629 26.1567 0.014957C34.8671 -0.0683724 47.6348 -0.00660461 54.5259 5.89663C57.1996 8.18667 56.6958 23.9668 56.6645 27.1631C56.4489 27.6358 56.1124 27.007 55.6131 27.1631C53.0749 31.118 54.1547 17.1628 54.4115 15.5874C46.4903 20.3599 39.7834 21.3194 30.6458 21.6054C21.157 21.9024 11.2055 21.6221 2.88168 16.3542C2.87481 19.6681 2.74442 23.9247 2.90913 27.1631ZM2.93659 46.4005C2.87024 50.3004 2.14045 58.674 3.89111 61.4953C7.82824 65.6566 18.911 67.5257 24.6262 67.3592C33.1422 67.111 55.0824 68.9463 54.1856 55.6399C54.0586 53.7509 54.4407 47.8028 54.03 46.3645L53.7944 46.1671C51.553 47.5827 48.5807 49.3882 46.0694 50.1083C34.4433 53.4403 12.6627 54.1335 2.93659 46.4005ZM53.5776 8.87916C46.1157 1.8263 31.713 2.81344 21.8107 2.90306C17.3828 3.28316 3.38725 4.45498 2.8605 10.9282C2.77929 11.9276 3.99006 13.5085 4.74958 14.0437C12.9819 19.7654 26.2048 18.8524 35.8062 18.4856C36.0098 18.4778 36.4107 18.3702 36.5858 18.318C41.0142 17.7898 49.5187 16.8085 52.4389 13.1706C53.7452 11.5432 53.6852 10.7922 53.5776 8.87916ZM2.89655 31.4527C2.83306 35.217 2.06553 41.411 4.20968 44.1837C12.5695 51.5032 45.1921 51.9482 52.7089 43.3613C53.0995 42.9112 53.4781 42.4508 53.8453 41.9812C54.0209 40.0664 54.4452 32.4883 53.6022 31.118C42.0871 38.9124 14.9819 38.2662 2.89655 31.4527Z" fill="url(#paint0_linear_51_119)"/>
<path d="M54.4115 15.5874C54.6814 15.9888 54.9485 16.3922 55.2122 16.7978C55.8104 16.7023 55.6589 16.636 56.1193 16.8588C56.1862 18.1766 56.2725 19.4934 56.3789 20.8086C56.1633 21.2812 55.7264 21.724 55.2271 21.8801C53.4907 21.0851 54.1547 17.1628 54.4115 15.5874Z" fill="#A6A5A6"/>
<g filter="url(#filter0_d_51_119)">
<path d="M44.2352 56.8218C45.7909 56.8338 46.615 56.6496 47.4089 58.1389C47.4054 59.0952 47.2819 59.2187 46.7117 59.9937C45.3053 60.259 44.4543 60.4472 43.6485 59.1152C43.5741 58.0348 43.7325 57.8038 44.2352 56.8218Z" fill="#2563EB"/>
</g>
<defs>
<filter id="filter0_d_51_119" x="33.6311" y="46.8201" width="23.7778" height="23.3635" filterUnits="userSpaceOnUse" color-interpolation-filters="sRGB">
<feFlood flood-opacity="0" result="BackgroundImageFix"/>
<feColorMatrix in="SourceAlpha" type="matrix" values="0 0 0 0 0 0 0 0 0 0 0 0 0 0 0 0 0 0 127 0" result="hardAlpha"/>
<feOffset/>
<feGaussianBlur stdDeviation="5"/>
<feComposite in2="hardAlpha" operator="out"/>
<feColorMatrix type="matrix" values="0 0 0 0 0.145098 0 0 0 0 0.388235 0 0 0 0 0.921569 0 0 0 1 0"/>
<feBlend mode="normal" in2="BackgroundImageFix" result="effect1_dropShadow_51_119"/>
<feBlend mode="normal" in="SourceGraphic" in2="effect1_dropShadow_51_119" result="shape"/>
</filter>
<linearGradient id="paint0_linear_51_119" x1="28.3915" y1="0" x2="28.3915" y2="70" gradientUnits="userSpaceOnUse">
<stop stop-color="#DEDEDE"/>
<stop offset="1" stop-color="#3C3C3C"/>
</linearGradient>
</defs>
</svg>
