<svg width="83" height="73" viewBox="0 0 83 73" fill="none" xmlns="http://www.w3.org/2000/svg">
<path d="M7.73389 2.9037C8.113 2.87924 8.49256 2.86189 8.87232 2.85166C22.9201 2.58284 37.8544 2.82369 51.9464 2.82122L66.9332 2.82083C70.7026 2.82137 77.7458 2.10979 80.5649 4.67757C83.0253 6.91857 82.5841 10.1273 82.5964 13.1603C82.6078 15.898 82.5732 18.7154 82.5594 21.4795L82.5411 47.9595C82.5416 50.7599 82.9334 54.7458 80.6109 56.6942C77.4523 59.3444 70.7915 58.8176 66.8936 58.8236C62.7348 58.8488 58.576 58.8349 54.4172 58.7825C54.9054 60.8051 55.3823 62.8302 55.8487 64.8582C56.0785 66.2329 56.6873 68.5866 57.1079 69.8764C58.2172 69.8719 61.8947 69.7558 61.0927 71.806C59.8667 72.7286 57.9751 72.6535 56.4946 72.6056C46.1247 72.27 35.2965 73.0137 24.9902 72.5898C24.4416 71.7507 24.1154 71.384 24.6039 70.4501C25.3105 69.9371 26.8611 69.8541 27.8829 69.6075C29.2914 67.5958 30.482 61.3788 30.5997 58.8082C23.7584 59.0069 16.5604 58.6882 9.69697 58.6941C6.41321 58.6971 4.79059 57.3786 2.69616 54.977C2.45828 54.008 2.35169 53.075 2.31809 52.0793C2.19153 48.3252 2.01156 8.58728 2.49939 7.57728C3.74284 5.00272 5.03031 3.84729 7.73389 2.9037ZM76.5949 56.0785C78.2948 55.2251 78.7791 54.77 79.7778 53.2544C80.0797 40.807 79.8005 28.3572 79.8894 15.9086C79.9077 13.3506 79.712 10.7914 79.8459 8.23791C79.6117 7.87748 79.3646 7.52544 79.1052 7.18245C77.2798 4.80397 70.1976 5.51279 67.2608 5.53399C61.9249 5.59215 56.5885 5.62007 51.2521 5.6177L20.661 5.60688C16.7871 5.6301 9.41634 4.65919 6.28942 6.60848C4.20754 7.90629 4.99933 16.3641 4.69068 18.9322C7.36752 18.1722 29.9831 18.5562 33.6465 18.5626L65.7729 18.67C68.81 18.699 75.9871 18.2727 78.569 19.0921L78.5014 19.3035C74.6623 20.2426 63.4508 19.6799 58.9629 19.6687L29.0173 19.6847C25.6932 19.6838 7.00076 20.0833 4.94502 19.4761C4.64961 24.8956 4.83507 31.5826 4.78887 37.0837C4.748 41.9546 4.57396 48.98 5.07943 53.6473C5.38378 53.9744 5.69386 54.2961 6.00953 54.6129C8.22859 56.8212 13.4108 56.1398 16.4837 56.123L29.5656 56.0953L76.5949 56.0785ZM30.994 69.9322C37.7819 69.9524 45.5669 70.1051 52.2622 69.8161L53.8029 69.8951L54.1118 69.5838C53.0415 66.5215 52.7173 62.3904 51.9637 58.9011C46.06 58.5468 39.5018 58.9659 33.5231 58.7094C33.0289 61.2588 31.8891 67.8612 30.994 69.9322Z" fill="url(#paint0_linear_51_117)"/>
<path d="M12.735 25.7116C15.2926 25.5412 38.3346 25.1435 39.3305 25.9518C39.5819 26.1558 39.5713 26.5868 39.5754 26.8996C39.5787 27.1521 39.477 27.3789 39.3674 27.6007C38.1551 28.1906 16.6586 27.9104 14.0432 27.8887C12.6553 28.0202 12.4205 28.2371 11.4137 27.293C11.1424 26.4607 11.1476 26.814 11.4132 25.9587C12.0977 25.5185 11.8246 25.6234 12.735 25.7116Z" fill="#2563EB"/>
<path d="M11.5054 47.068C19.5875 47.1417 27.6859 46.9712 35.7707 47.0621C36.8949 47.075 37.8561 47.0863 38.9713 47.2711C39.4427 47.9476 39.2591 48.1913 39.2254 49.1726C38.26 49.2725 36.9821 49.2705 35.9945 49.266C28.0494 49.23 20.099 49.3792 12.1562 49.2789C11.5995 49.2715 11.3751 48.8371 11.0933 48.4546C11.0611 47.4673 10.9323 47.7969 11.5054 47.068Z" fill="#2563EB" fill-opacity="0.6"/>
<path d="M11.59 32.7133C14.5946 32.8492 38.4282 32.308 39.5786 33.3014C39.6765 33.8706 39.3197 34.3352 39.0267 34.8444C36.0272 34.7005 12.462 35.232 11.4926 34.4711C11.2557 33.6782 11.3443 33.5118 11.59 32.7133Z" fill="#2563EB" fill-opacity="0.86"/>
<path d="M11.4498 39.9976C14.1619 40.2146 31.4941 39.7123 32.3835 40.4728C32.4957 41.3044 32.4961 41.019 32.1007 41.8427C25.9694 42.3507 18.864 41.8834 12.647 41.8892C12.3031 41.8896 11.8201 41.6049 11.552 41.3814C11.1743 40.6363 11.2528 40.9256 11.4498 39.9976Z" fill="#2563EB" fill-opacity="0.18"/>
<g filter="url(#filter0_d_51_117)">
<path d="M11.5653 10.084C12.6692 9.76763 13.8276 10.3707 14.2022 11.4567C14.5768 12.5429 14.0366 13.7323 12.9726 14.1644C12.2321 14.4651 11.3861 14.3321 10.7733 13.8187C10.1606 13.3053 9.88122 12.4954 10.0471 11.7131C10.213 10.9309 10.797 10.3042 11.5653 10.084Z" fill="#2563EB"/>
</g>
<g filter="url(#filter1_d_51_117)">
<path d="M18.4836 10.084C19.5875 9.76763 20.7459 10.3707 21.1204 11.4567C21.495 12.5429 20.9548 13.7323 19.8908 14.1644C19.1503 14.4651 18.3043 14.3321 17.6915 13.8187C17.0788 13.3053 16.7994 12.4954 16.9653 11.7131C17.1312 10.9309 17.7152 10.3042 18.4836 10.084Z" fill="#2563EB"/>
</g>
<g filter="url(#filter2_d_51_117)">
<path d="M25.4017 10.084C26.5056 9.76763 27.664 10.3707 28.0386 11.4567C28.4131 12.5429 27.873 13.7323 26.809 14.1644C26.0684 14.4651 25.2224 14.3321 24.6097 13.8187C23.9969 13.3053 23.7176 12.4954 23.8835 11.7131C24.0494 10.9309 24.6334 10.3042 25.4017 10.084Z" fill="#2563EB"/>
</g>
<path d="M4.56427 18.4508C7.54871 18.3422 29.9016 18.4426 33.5891 18.4508L65.9269 18.5878C68.9839 18.6249 76.6883 18.5878 80.1701 18.5878V19.8627C75.9422 19.8627 63.7557 19.8627 59.0721 19.8627L28.9295 19.8831C25.5835 19.8819 6.8026 19.8831 4.56427 19.8831V18.4508Z" fill="#373737"/>
<defs>
<filter id="filter0_d_51_117" x="0" y="0" width="24.3209" height="24.323" filterUnits="userSpaceOnUse" color-interpolation-filters="sRGB">
<feFlood flood-opacity="0" result="BackgroundImageFix"/>
<feColorMatrix in="SourceAlpha" type="matrix" values="0 0 0 0 0 0 0 0 0 0 0 0 0 0 0 0 0 0 127 0" result="hardAlpha"/>
<feOffset/>
<feGaussianBlur stdDeviation="5"/>
<feComposite in2="hardAlpha" operator="out"/>
<feColorMatrix type="matrix" values="0 0 0 0 0.145098 0 0 0 0 0.388235 0 0 0 0 0.921569 0 0 0 1 0"/>
<feBlend mode="normal" in2="BackgroundImageFix" result="effect1_dropShadow_51_117"/>
<feBlend mode="normal" in="SourceGraphic" in2="effect1_dropShadow_51_117" result="shape"/>
</filter>
<filter id="filter1_d_51_117" x="6.91821" y="0" width="24.3209" height="24.323" filterUnits="userSpaceOnUse" color-interpolation-filters="sRGB">
<feFlood flood-opacity="0" result="BackgroundImageFix"/>
<feColorMatrix in="SourceAlpha" type="matrix" values="0 0 0 0 0 0 0 0 0 0 0 0 0 0 0 0 0 0 127 0" result="hardAlpha"/>
<feOffset/>
<feGaussianBlur stdDeviation="5"/>
<feComposite in2="hardAlpha" operator="out"/>
<feColorMatrix type="matrix" values="0 0 0 0 0.145098 0 0 0 0 0.388235 0 0 0 0 0.921569 0 0 0 1 0"/>
<feBlend mode="normal" in2="BackgroundImageFix" result="effect1_dropShadow_51_117"/>
<feBlend mode="normal" in="SourceGraphic" in2="effect1_dropShadow_51_117" result="shape"/>
</filter>
<filter id="filter2_d_51_117" x="13.8364" y="0" width="24.3209" height="24.323" filterUnits="userSpaceOnUse" color-interpolation-filters="sRGB">
<feFlood flood-opacity="0" result="BackgroundImageFix"/>
<feColorMatrix in="SourceAlpha" type="matrix" values="0 0 0 0 0 0 0 0 0 0 0 0 0 0 0 0 0 0 127 0" result="hardAlpha"/>
<feOffset/>
<feGaussianBlur stdDeviation="5"/>
<feComposite in2="hardAlpha" operator="out"/>
<feColorMatrix type="matrix" values="0 0 0 0 0.145098 0 0 0 0 0.388235 0 0 0 0 0.921569 0 0 0 1 0"/>
<feBlend mode="normal" in2="BackgroundImageFix" result="effect1_dropShadow_51_117"/>
<feBlend mode="normal" in="SourceGraphic" in2="effect1_dropShadow_51_117" result="shape"/>
</filter>
<linearGradient id="paint0_linear_51_117" x1="42.3991" y1="2.72437" x2="42.3991" y2="72.7244" gradientUnits="userSpaceOnUse">
<stop stop-color="#DEDEDE"/>
<stop offset="1" stop-color="#3C3C3C"/>
</linearGradient>
</defs>
</svg>
