<svg width="81" height="74" viewBox="0 0 81 74" fill="none" xmlns="http://www.w3.org/2000/svg">
<path d="M13.7428 73.034C10.2627 73.2986 4.20518 73.2501 2.59563 69.879C0.943581 66.419 1.45627 57.5485 1.45612 53.6639L1.46424 33.3416L1.44723 18.556C1.44539 15.8055 1.36892 12.8829 1.57684 10.157C1.70215 8.51358 1.97959 6.82418 3.15691 5.63389C4.80207 3.85969 7.10577 3.33096 9.43082 3.19712C13.9447 3.14042 18.5324 3.19251 23.0561 3.19966L49.5851 3.23237C54.7565 3.24616 59.9284 3.23338 65.0998 3.19405C68.2099 3.17719 71.5233 3.00043 74.5904 3.32942C79.3915 3.84487 80.615 7.13171 80.5986 11.3146C80.5153 22.6908 80.5915 34.0788 80.5536 45.454C80.5291 52.8123 80.923 60.28 80.289 67.5883C79.9391 71.6287 74.8785 73.056 71.3828 72.9957C64.9057 73.2659 56.5956 73.0483 49.9902 73.056L13.7428 73.034ZM74.0438 70.6877C76.4602 69.9883 78.1818 68.7107 78.2584 65.9112C78.4786 57.9005 78.2334 49.8652 78.3008 41.8504C78.0826 30.8108 78.736 19.6088 78.0183 8.62085C77.9815 8.05431 76.805 6.52533 76.2502 6.37616C71.3102 5.04743 64.5797 5.50873 59.5233 5.51486L37.503 5.54807L18.7194 5.53122C15.6975 5.52713 11.6289 5.40349 8.67123 5.58076C5.06153 6.28625 3.95287 7.44334 3.85188 11.192C3.73673 15.4653 3.80151 19.733 3.79435 24.0068L3.74914 47.7528C3.74848 53.4805 3.73596 59.2088 3.80488 64.9359C3.82097 66.2744 3.88759 67.6057 4.72544 68.7255C5.74843 70.0925 7.53305 70.7439 9.1967 70.8501C13.6897 71.0734 18.2113 70.9977 22.7131 70.9921L44.8817 70.9926L62.8081 71.0054C65.8707 71.0044 71.1708 71.1168 74.0438 70.6877Z" fill="url(#paint0_linear_51_116)"/>
<path d="M13.8598 27.068C19.2521 27.5655 26.2056 26.7426 31.9187 27.0532C32.6502 27.0925 33.0512 27.2054 33.5586 27.7847C33.7318 27.9824 33.5902 28.7446 33.5719 29.0332C33.0965 29.3009 32.6407 29.4869 32.0933 29.5451C29.2857 29.8439 16.784 30.0013 14.4336 29.4516C13.731 29.2876 13.5684 29.0884 13.1983 28.4912C13.2945 27.7592 13.4087 27.6146 13.8598 27.068Z" fill="#2563EB"/>
<path d="M15.8421 49.5449C17.6284 49.1265 33.5418 49.0299 35.3847 49.6741C35.9676 49.878 36.1223 50.0041 36.3954 50.5497C36.3402 50.729 36.2761 50.9012 36.1567 51.0493C35.6088 51.7273 34.7597 51.5776 33.9812 51.5939C31.52 51.6435 15.4046 51.9791 14.0825 51.5842C13.6186 51.4458 13.4424 51.1495 13.2101 50.7633L13.4319 50.0557C14.0087 49.4831 15.0695 49.5796 15.8421 49.5449Z" fill="#2563EB" fill-opacity="0.65"/>
<path d="M13.6436 34.7012C16.1088 34.4463 26.1506 34.196 28.1921 34.8836C28.4664 35.5135 28.437 35.7224 28.3577 36.3814L27.8802 36.5914C24.5245 36.7017 16.4354 37.894 13.7121 36.1878C13.3498 35.5232 13.4729 35.4138 13.6436 34.7012Z" fill="#2563EB" fill-opacity="0.58"/>
<path d="M16.8385 41.8357C19.2019 41.8822 23.0884 41.311 25.1544 42.2679C25.5764 42.4635 25.5754 42.5315 25.7354 42.9504C25.6219 43.1276 25.5021 43.2931 25.3541 43.4438C24.6301 44.181 23.68 44.1146 22.7262 44.1054C21.031 44.1524 19.3213 44.227 17.6259 44.1892C16.46 44.1631 14.5938 44.0512 13.7676 43.1853L13.9481 42.7307C14.739 42.0456 15.8411 41.992 16.8385 41.8357Z" fill="#2563EB" fill-opacity="0.2"/>
<g filter="url(#filter0_d_51_116)">
<path d="M11.1564 10.2613C11.8796 9.87258 12.7591 9.92061 13.4361 10.385C14.113 10.8499 14.4741 11.6539 14.3719 12.4687C14.2697 13.2836 13.7214 13.9732 12.9507 14.2562C11.8694 14.6537 10.6653 14.1464 10.1932 13.0956C9.72108 12.0442 10.1417 10.8064 11.1564 10.2613Z" fill="#2563EB"/>
</g>
<g filter="url(#filter1_d_51_116)">
<path d="M18.8192 10.2613C19.5424 9.87258 20.422 9.92061 21.0989 10.385C21.7758 10.8499 22.1369 11.6539 22.0347 12.4687C21.9326 13.2836 21.3842 13.9732 20.6135 14.2562C19.5323 14.6537 18.3281 14.1464 17.856 13.0956C17.3839 12.0442 17.8045 10.8064 18.8192 10.2613Z" fill="#2563EB"/>
</g>
<g filter="url(#filter2_d_51_116)">
<path d="M26.482 10.2613C27.2052 9.87258 28.0848 9.92061 28.7617 10.385C29.4386 10.8499 29.7997 11.6539 29.6975 12.4687C29.5954 13.2836 29.047 13.9732 28.2763 14.2562C27.1951 14.6537 25.9909 14.1464 25.5188 13.0956C25.0467 12.0442 25.4673 10.8064 26.482 10.2613Z" fill="#2563EB"/>
</g>
<path d="M3.89185 19.8517C11.0365 19.7173 77.0283 19.5174 78.2764 20.0987L78.4545 20.9782C76.0461 21.3332 69.23 21.1534 66.4533 21.1534L43.0431 21.1655L17.0655 21.181C13.9075 21.1821 6.59074 21.3855 3.86972 21.0247L3.89185 19.8517Z" fill="#373737"/>
<defs>
<filter id="filter0_d_51_116" x="0" y="0" width="24.389" height="24.3914" filterUnits="userSpaceOnUse" color-interpolation-filters="sRGB">
<feFlood flood-opacity="0" result="BackgroundImageFix"/>
<feColorMatrix in="SourceAlpha" type="matrix" values="0 0 0 0 0 0 0 0 0 0 0 0 0 0 0 0 0 0 127 0" result="hardAlpha"/>
<feOffset/>
<feGaussianBlur stdDeviation="5"/>
<feComposite in2="hardAlpha" operator="out"/>
<feColorMatrix type="matrix" values="0 0 0 0 0.145098 0 0 0 0 0.388235 0 0 0 0 0.921569 0 0 0 1 0"/>
<feBlend mode="normal" in2="BackgroundImageFix" result="effect1_dropShadow_51_116"/>
<feBlend mode="normal" in="SourceGraphic" in2="effect1_dropShadow_51_116" result="shape"/>
</filter>
<filter id="filter1_d_51_116" x="7.66284" y="0" width="24.389" height="24.3914" filterUnits="userSpaceOnUse" color-interpolation-filters="sRGB">
<feFlood flood-opacity="0" result="BackgroundImageFix"/>
<feColorMatrix in="SourceAlpha" type="matrix" values="0 0 0 0 0 0 0 0 0 0 0 0 0 0 0 0 0 0 127 0" result="hardAlpha"/>
<feOffset/>
<feGaussianBlur stdDeviation="5"/>
<feComposite in2="hardAlpha" operator="out"/>
<feColorMatrix type="matrix" values="0 0 0 0 0.145098 0 0 0 0 0.388235 0 0 0 0 0.921569 0 0 0 1 0"/>
<feBlend mode="normal" in2="BackgroundImageFix" result="effect1_dropShadow_51_116"/>
<feBlend mode="normal" in="SourceGraphic" in2="effect1_dropShadow_51_116" result="shape"/>
</filter>
<filter id="filter2_d_51_116" x="15.3256" y="0" width="24.389" height="24.3914" filterUnits="userSpaceOnUse" color-interpolation-filters="sRGB">
<feFlood flood-opacity="0" result="BackgroundImageFix"/>
<feColorMatrix in="SourceAlpha" type="matrix" values="0 0 0 0 0 0 0 0 0 0 0 0 0 0 0 0 0 0 127 0" result="hardAlpha"/>
<feOffset/>
<feGaussianBlur stdDeviation="5"/>
<feComposite in2="hardAlpha" operator="out"/>
<feColorMatrix type="matrix" values="0 0 0 0 0.145098 0 0 0 0 0.388235 0 0 0 0 0.921569 0 0 0 1 0"/>
<feBlend mode="normal" in2="BackgroundImageFix" result="effect1_dropShadow_51_116"/>
<feBlend mode="normal" in="SourceGraphic" in2="effect1_dropShadow_51_116" result="shape"/>
</filter>
<linearGradient id="paint0_linear_51_116" x1="41.0167" y1="3.13159" x2="41.0167" y2="73.1316" gradientUnits="userSpaceOnUse">
<stop stop-color="#DEDEDE"/>
<stop offset="1" stop-color="#3C3C3C"/>
</linearGradient>
</defs>
</svg>
