<svg width="61" height="70" viewBox="0 0 61 70" fill="none" xmlns="http://www.w3.org/2000/svg">
<path d="M27.8515 2.18582e-05C40.4109 -0.0131061 43.1263 5.88734 43.2517 17.3495C48.1217 17.291 51.8815 16.2856 55.4075 20.1654C55.9668 22.7687 56.2576 26.4253 56.5612 29.1553L58.057 42.0168C58.85 48.9623 59.9217 56.0431 60.3029 63.0053C60.7406 70.9962 51.1172 69.9153 45.9266 69.9031L33.3062 69.885L15.6074 69.9104C11.8217 69.9138 5.11477 70.6131 2.07533 68.049C1.05486 67.1877 -0.10469 65.1058 0.0075559 63.7349C1.17053 49.5616 3.02308 35.3256 4.81024 21.209C5.41051 16.4582 12.6104 17.3079 16.11 17.3502C15.8621 8.00407 18.392 2.56993 27.8515 2.18582e-05ZM15.8289 19.8961C13.8241 20.0224 11.7837 20.0124 9.7725 20.0271C8.8882 20.3415 8.38308 20.4395 7.79793 21.1537C6.32897 25.0294 6.07032 34.1919 5.42954 38.6851C4.57012 46.2435 3.51061 53.8445 2.79419 61.4114C2.40377 65.5391 3.64043 67.3453 7.95411 67.3253C22.7165 67.2555 37.4734 67.4146 52.2309 67.2575C53.778 67.2414 57.1205 66.6743 57.3947 64.8715C58.0951 61.2245 57.015 57.2378 56.7935 53.5351C55.1508 43.16 54.5871 32.2333 52.8356 21.8349C52.7433 21.2873 51.4335 20.324 50.9777 19.992C48.4365 20.0135 45.8949 19.9905 43.3542 19.9229C43.3703 21.7336 43.4249 23.5734 43.4113 25.3799C43.3991 26.9379 43.7734 29.8211 41.7676 30.0581C40.0761 28.8454 40.2962 22.0599 40.4094 20.0602C33.2315 19.8647 25.8633 20.2114 18.7385 19.9328C18.5277 22.3773 18.8689 28.2334 17.9133 29.5969C17.1959 29.9526 17.5199 29.9143 16.6869 29.6957C15.0969 28.1754 15.928 22.2677 15.8289 19.8961ZM18.7795 17.3052L32.3184 17.4008C35.0045 17.38 37.9522 17.2994 40.6168 17.3696C40.5563 8.81448 39.3055 2.36481 29.0267 2.66309C28.6245 2.67495 28.2224 2.6893 27.8207 2.70618C25.3059 3.22105 22.3607 5.02095 20.9361 7.22278C18.843 10.4587 19.1173 13.7225 18.7795 17.3052Z" fill="url(#paint0_linear_51_118)"/>
<defs>
<linearGradient id="paint0_linear_51_118" x1="30.035" y1="69.4264" x2="31.1597" y2="0.60861" gradientUnits="userSpaceOnUse">
<stop offset="0.442308" stop-color="#DEDEDE"/>
<stop offset="1" stop-color="#2563EB"/>
</linearGradient>
</defs>
</svg>
