<svg width="65" height="90" viewBox="0 0 65 90" fill="none" xmlns="http://www.w3.org/2000/svg">
<g filter="url(#filter0_d_51_115)">
<path d="M45.5648 6.03428C47.484 5.97228 51.7592 5.80499 52.7223 7.60453C54.4497 9.94602 54.1435 18.7508 54.1418 22.933L54.1194 41.6724L54.1098 59.8762C54.1055 64.1461 54.2257 68.5629 53.7741 72.7942C53.7741 72.8413 53.7741 75.6211 49.9415 75.6964C45.9138 75.7755 41.1314 75.6964 41.1314 72.8413C40.9224 69.3197 41.1201 64.0296 41.1239 60.3637L41.1373 35.6848L41.1073 19.7203C41.1025 16.6071 41.1073 12.3372 41.4873 8.8477C42.4243 6.9926 43.4926 6.59119 45.5648 6.03428ZM51.0852 72.2929C51.9922 69.1144 51.5818 11.3399 51.1515 10.1224C51.1515 8.06152 47.2344 8.80334 45.056 8.80334C44.9849 8.87709 43.9598 9.94602 43.9598 9.94602C43.7305 13.4062 43.7374 16.5974 43.7305 19.9181C43.7005 35.8766 43.6001 51.839 43.6615 67.7975C43.6642 68.6174 43.7989 71.7413 44.2174 72.2363C46.4327 72.8413 49.4653 72.8006 51.0852 72.2929Z" fill="#4B83FF"/>
</g>
<path d="M25.3733 26.2207C25.5727 26.2127 25.772 26.2058 25.9719 26.2004C28.2349 26.1384 31.1033 25.8268 32.8596 27.5612C33.7575 28.4473 33.9237 29.7386 34.0648 30.9406C34.6041 35.5172 34.2561 40.469 34.2561 45.0798C34.2813 54.1043 34.2486 63.1287 34.1578 72.1531C33.2 73.8634 32.5159 74.7736 30.7094 75.6378C29.2952 75.9949 27.408 76.043 25.9522 75.9724C24.4198 75.8981 22.9036 75.323 21.8678 74.1649C21.0768 73.2798 20.9367 72.2456 20.8106 71.1109C20.2548 66.1287 20.6631 60.7113 20.6561 55.6879C20.6444 47.0071 20.4253 38.2692 20.7625 29.5985C21.957 27.6023 23.1997 26.8396 25.3733 26.2207ZM30.0274 72.8089C30.6159 72.477 30.9008 72.2916 31.0857 71.608C31.8029 68.9533 31.8527 33.4344 31.1418 30.2688C30.6747 29.5878 30.1402 29.2581 29.3166 29.1229C28.0264 28.9112 26.6812 29.1271 25.3808 29.0721C24.4957 29.6328 23.7422 30.0331 23.4979 31.1095C22.8737 33.8577 23.3643 39.9597 23.3648 43.0131C23.3653 51.7585 23.0628 60.6333 23.4252 69.3622C23.453 70.0377 23.4359 71.298 23.8485 71.8458C24.384 72.5561 25.4551 72.8736 26.3017 72.9484C27.5117 73.0558 28.8233 72.9463 30.0274 72.8089Z" fill="url(#paint0_linear_51_115)"/>
<path d="M3.97491 42.1672C6.25494 42.1063 8.55046 42.2581 10.8214 42.4446C12.0758 43.2859 12.7615 43.3361 13.8395 45.3794C14.2099 54.2018 14.0319 63.2476 13.831 72.0796C13.4007 72.9059 12.94 73.7348 12.3136 74.4312C11.1832 75.6862 9.71239 75.7984 8.14213 75.8983C6.91553 75.9203 5.54357 76.0405 4.33461 75.8332C3.11122 75.6236 1.75101 74.8871 1.06743 73.8236C-0.189634 71.8685 -0.23185 49.2601 0.400422 46.3708C0.818373 44.4628 2.441 43.18 3.97491 42.1672ZM9.66963 72.9326C10.327 72.3869 10.8759 72.093 10.9646 71.1726C11.188 68.8424 11.4376 46.9181 10.6878 46.1041C10.3404 45.7268 9.84387 45.421 9.41897 45.1367C7.83054 45.1234 6.24265 45.0972 4.65529 45.0581C3.55162 45.9416 3.2737 46.6909 3.11871 48.0859C2.86377 50.3868 2.81833 71.1646 3.66385 72.3308C3.9995 72.7937 4.85464 72.9187 5.38964 72.9599C6.79154 73.0668 8.26346 72.9636 9.66963 72.9326Z" fill="#DEDEDE"/>
<defs>
<filter id="filter0_d_51_115" x="31.0356" y="0" width="33.1282" height="89.7136" filterUnits="userSpaceOnUse" color-interpolation-filters="sRGB">
<feFlood flood-opacity="0" result="BackgroundImageFix"/>
<feColorMatrix in="SourceAlpha" type="matrix" values="0 0 0 0 0 0 0 0 0 0 0 0 0 0 0 0 0 0 127 0" result="hardAlpha"/>
<feOffset dy="4"/>
<feGaussianBlur stdDeviation="5"/>
<feComposite in2="hardAlpha" operator="out"/>
<feColorMatrix type="matrix" values="0 0 0 0 0.145098 0 0 0 0 0.388235 0 0 0 0 0.921569 0 0 0 1 0"/>
<feBlend mode="normal" in2="BackgroundImageFix" result="effect1_dropShadow_51_115"/>
<feBlend mode="normal" in="SourceGraphic" in2="effect1_dropShadow_51_115" result="shape"/>
</filter>
<linearGradient id="paint0_linear_51_115" x1="34.3666" y1="51.0696" x2="20.5181" y2="51.0696" gradientUnits="userSpaceOnUse">
<stop stop-color="#97BEDF"/>
<stop offset="1" stop-color="#DEDEDE"/>
</linearGradient>
</defs>
</svg>
