<svg width="76" height="80" viewBox="0 0 76 80" fill="none" xmlns="http://www.w3.org/2000/svg">
<path d="M57.079 28.9907C56.8266 28.8509 56.6537 28.6539 56.4386 28.452C56.2041 26.0569 65.1828 19.7149 65.7261 18.5407C64.8005 17.2579 64.4514 15.9633 65.5532 14.6248C66.1662 13.8856 67.0548 13.4296 68.0127 13.3628C71.5802 13.1049 72.646 16.7601 70.5286 19.3403C69.6238 20.4432 67.8782 19.4093 66.3718 19.4771C65.1368 20.2509 65.719 20.8281 64.8019 21.6252C62.3628 23.7451 59.2955 26.2977 57.2486 28.7866L57.079 28.9907ZM68.0695 18.4898C70.7948 17.8918 70.8957 16.0838 68.8843 14.4991C67.4149 14.7682 66.5025 15.4477 66.6716 17.0554C66.9809 17.7109 67.3424 18.24 68.0695 18.4898Z" fill="#DEDEDE"/>
<g filter="url(#filter0_d_51_120)">
<path d="M38.644 11.4504C41.4787 9.55901 42.6577 9.30989 45.2143 11.9536L45.22 15.3093C44.4389 16.0597 43.6355 16.8549 42.8434 17.5868C42.8543 18.9679 42.9927 26.2328 42.7591 27.0367C44.4777 27.4156 53.0286 27.8053 54.3323 27.1876L54.5019 26.9835C56.1035 28.0356 61.0769 26.0182 62.049 31.2825C62.8524 35.631 62.6022 41.1829 62.4554 45.5622C62.7401 46.7463 62.5771 46.7163 63.8775 46.7333L64.2209 47.0422C63.7178 47.2142 63.21 47.1953 62.6861 47.1872C61.2759 51.6045 64.6051 61.0915 60.2356 63.7916C57.0736 65.7452 44.5379 63.6102 43.1494 64.9579C43.0699 65.6457 42.977 66.3316 42.8709 67.0156C42.3887 65.8896 42.9344 65.3899 42.3513 64.6968L41.2177 64.6116C39.7501 64.4126 37.582 64.6239 36.04 64.5453C33.8733 64.4354 31.6005 64.612 29.4295 64.3804C28.7279 64.3056 28.0169 63.1123 27.2026 62.9294L26.6815 62.3695C26.5953 61.8238 25.9605 61.0663 25.6071 60.5775C25.5839 57.9366 25.4688 54.4799 25.6872 51.9191C25.547 50.4851 25.6564 48.3935 25.6919 46.9039C23.6574 47.0306 19.2789 46.8125 17.7355 47.129L17.5948 47.1591C16.1856 47.4512 16.1609 49.5362 13.8544 49.7583C10.3751 50.1714 8.75688 46.4594 11.1046 43.9941C12.3324 42.7045 13.5797 42.849 15.2353 42.8207C16.3698 43.8631 16.5532 44.1092 17.0875 45.5736C19.943 45.5277 22.8757 45.5575 25.7379 45.5528C25.403 44.3613 25.4825 35.6952 25.4063 33.8362C25.312 31.537 25.7691 29.9356 27.4323 28.2834C29.7175 26.7271 33.393 27.8421 36.2343 27.2917C36.3914 27.3077 36.176 28.1457 36.175 27.3029C36.175 27.3029 35.2565 29.6104 36.175 27.2833L36.5384 27.3242L37.0931 27.2833C37.9628 27.6145 40.0149 27.4234 41.0467 27.3784C40.7648 24.9868 40.7482 19.6752 41.2504 17.3728C38.005 16.1931 37.5062 14.515 38.644 11.4504ZM13.2576 44.2739C11.0975 45.4848 10.9606 47.8726 13.3097 48.6982C15.4608 47.9939 16.096 45.8532 14.2718 44.4623L13.2576 44.2739ZM42.4394 15.524C45.0121 13.7017 43.7757 11.4751 40.654 11.8448C40.032 12.5698 39.7226 12.8366 39.5341 13.7567C39.8984 15.3494 40.9415 15.3837 42.4394 15.524ZM31.4276 62.2956C39.7042 62.0782 48.0272 62.5145 56.3076 62.1511C57.9604 62.0787 58.5511 61.9138 59.8438 60.8939L59.8486 41.1601C59.8547 38.0569 59.8874 34.9574 59.8116 31.8561C59.7789 30.515 58.0641 29.8079 56.994 29.9289C50.6193 30.2482 44.1693 29.8342 37.7857 30.0667C35.708 30.1424 29.7615 29.5851 28.2547 31.0353C27.6611 33.2406 27.7597 36.565 27.772 38.8781C27.8066 45.6067 27.5711 52.3823 27.9306 59.0976C28.0088 60.5609 29.9117 62.2743 31.4276 62.2956Z" fill="url(#paint0_linear_51_120)"/>
</g>
<path d="M38.644 11.4504C41.4787 9.55901 42.6577 9.30989 45.2143 11.9536L45.22 15.3093C44.4389 16.0597 43.6355 16.8549 42.8434 17.5868C42.8543 18.9679 42.9927 26.2328 42.7591 27.0367C42.014 27.2216 41.8108 27.3133 41.0386 27.3242C40.8633 24.7793 40.8543 19.1083 40.5649 17.3763C37.3195 16.1967 37.5062 14.515 38.644 11.4504ZM42.4393 15.524C45.012 13.7017 43.7757 11.4751 40.6539 11.8448C40.032 12.5698 39.7226 12.8366 39.5341 13.7567C39.8984 15.3494 40.9415 15.3837 42.4393 15.524Z" fill="#DEDEDE"/>
<path d="M37.4701 50.7912C36.3014 51.7202 35.5909 54.0887 34.7496 55.6036C33.8685 55.9863 34.22 55.9091 33.1972 55.7874L32.9424 55.3279C32.9575 52.0654 36.292 46.0554 37.1645 42.7116C37.5838 41.1054 39.0636 37.1751 41.2754 37.9188C42.2053 39.5101 47.3464 53.7717 47.3729 55.4117L47.011 55.7248C46.3838 55.7964 46.2015 55.8494 45.6041 55.5813C45.3265 55.1919 43.3592 51.3752 43.1702 50.7912C40.1773 50.7912 40.1773 50.7912 37.4701 50.7912ZM37.6127 48.952C38.4331 48.952 40.0076 48.952 40.8017 48.952C41.7491 48.952 42.9333 49.1148 42.6193 48.5782C42.3241 47.6913 40.3886 41.6479 40.1773 41.4842C39.2645 43.8384 38.3895 46.5329 37.6127 48.952Z" fill="url(#paint1_linear_51_120)"/>
<path d="M50.9405 37.8988C51.3124 37.9278 52.4076 37.7458 52.4076 37.9826C52.4076 41.2986 52.4076 45.7988 52.4076 49.1148C52.4076 51.0096 52.4076 53.1413 52.4076 55.0361C52.1708 55.7467 51.8955 55.5264 51.4602 55.7467C51.0504 55.4227 50.6814 55.3454 50.6369 54.8083C50.4436 52.4648 50.1944 39.0435 50.9405 37.8988Z" fill="url(#paint2_linear_51_120)"/>
<path d="M41.2177 64.6116L42.3513 64.6968C42.9345 65.3899 42.3887 65.8896 42.871 67.0156C43.5493 68.0393 42.5408 72.6134 43.0211 73.1151C44.2386 74.0663 45.5635 74.2094 45.7459 75.9834C46.5763 84.0435 31.8312 78.3098 41.1723 73.2439C40.9686 70.8877 41.1585 67.0872 41.2177 64.6116ZM43.1083 78.2032C43.7691 77.9043 43.8639 77.8635 44.2968 77.278C44.4172 75.4742 42.7615 74.7892 41.2031 74.7721C40.969 74.7697 40.735 74.7707 40.501 74.775C40.0207 75.9455 39.6204 76.6707 40.0979 77.8394C41.2277 78.7911 41.7601 78.5803 43.1083 78.2032Z" fill="#DEDEDE"/>
<path d="M27.2025 62.9296C26.5952 65.7287 22.5967 67.4402 21.1732 69.6012C20.8189 70.1389 20.5086 71.9778 20.2864 72.8007C18.7743 74.8438 13.9743 73.8338 14.0974 70.7983C14.1348 69.8642 14.0505 69.084 14.763 68.3445C16.7303 66.3023 18.6715 66.9613 20.6568 68.4861C20.8975 68.3421 21.7914 67.1403 21.8743 67.0579C22.7421 66.191 25.6848 62.4956 26.6815 62.3696L27.2025 62.9296ZM18.1343 72.4506C20.5834 70.8376 19.5185 68.5165 16.6763 68.768C14.2158 70.7249 15.3845 72.3577 18.1343 72.4506Z" fill="#DEDEDE"/>
<path d="M68.2276 45.5065C69.6672 44.3526 71.0291 42.2334 73.0883 42.6915C76.3322 43.4134 76.9665 49.1995 73.3332 49.745C70.3806 50.1884 69.5317 49.5895 69.1513 46.9265C67.5246 46.9361 65.7719 47.1206 64.2209 47.0423L63.8775 46.7334C62.5772 46.7164 62.7401 46.7464 62.4554 45.5623C64.3792 45.5216 66.3034 45.503 68.2276 45.5065Z" fill="#DEDEDE"/>
<path d="M59.2764 63.5627C60.5033 63.7257 65.3271 68.8541 66.4625 69.9848C69.4791 66.7224 72.6979 70.2164 71.3119 74.3438C68.2494 77.431 64.6515 75.0392 65.1314 70.7574C63.5938 68.8498 60.797 66.4254 59.2901 64.3491C59.2844 64.035 59.2802 63.7731 59.2764 63.5627ZM68.5037 74.1492C69.2086 74.1643 69.8661 73.7953 70.2209 73.1856C70.5757 72.576 70.5715 71.8218 70.21 71.216C69.8486 70.6101 69.1868 70.2486 68.4819 70.2719C67.4327 70.3064 66.6018 71.1705 66.608 72.2212C66.6136 73.2714 67.454 74.1259 68.5037 74.1492Z" fill="#DEDEDE"/>
<path d="M16.5597 16.6713C20.4223 16.5711 21.1996 17.8277 21.2565 21.5747C20.3597 22.4215 19.9618 22.8599 18.8282 23.3954C18.1115 23.5771 17.662 23.6566 16.9211 23.5048C16.0466 23.3298 15.2863 22.7939 14.8273 22.0287C13.5658 19.9487 14.5961 17.8074 16.5597 16.6713Z" fill="#DEDEDE"/>
<path d="M20.4617 22.5512C20.8899 22.3575 21.2826 22.0682 21.6128 22.312C23.0628 23.3834 27.0746 27.1076 27.6379 28.5091C26.9401 28.7135 26.8098 28.8637 26.0775 28.3955C24.0661 27.1091 21.9079 24.4582 20.4617 22.5512Z" fill="#DEDEDE"/>
<defs>
<filter id="filter0_d_51_120" x="0" y="0" width="74.2209" height="77.0156" filterUnits="userSpaceOnUse" color-interpolation-filters="sRGB">
<feFlood flood-opacity="0" result="BackgroundImageFix"/>
<feColorMatrix in="SourceAlpha" type="matrix" values="0 0 0 0 0 0 0 0 0 0 0 0 0 0 0 0 0 0 127 0" result="hardAlpha"/>
<feOffset/>
<feGaussianBlur stdDeviation="5"/>
<feComposite in2="hardAlpha" operator="out"/>
<feColorMatrix type="matrix" values="0 0 0 0 0.145098 0 0 0 0 0.388235 0 0 0 0 0.921569 0 0 0 1 0"/>
<feBlend mode="normal" in2="BackgroundImageFix" result="effect1_dropShadow_51_120"/>
<feBlend mode="normal" in="SourceGraphic" in2="effect1_dropShadow_51_120" result="shape"/>
</filter>
<linearGradient id="paint0_linear_51_120" x1="37.1104" y1="10" x2="37.1104" y2="67.0156" gradientUnits="userSpaceOnUse">
<stop stop-color="#2563EB"/>
<stop offset="1" stop-color="#DEDEDE"/>
</linearGradient>
<linearGradient id="paint1_linear_51_120" x1="40.1577" y1="37.8262" x2="40.1577" y2="55.8868" gradientUnits="userSpaceOnUse">
<stop stop-color="#2563EB"/>
<stop offset="1" stop-color="#DEDEDE"/>
</linearGradient>
<linearGradient id="paint2_linear_51_120" x1="51.4219" y1="37.8591" x2="51.4219" y2="55.7467" gradientUnits="userSpaceOnUse">
<stop stop-color="#2563EB"/>
<stop offset="1" stop-color="#DEDEDE"/>
</linearGradient>
</defs>
</svg>
