<svg width="60" height="54" viewBox="0 0 60 54" fill="none" xmlns="http://www.w3.org/2000/svg">
<g filter="url(#filter0_i_215_5)">
<rect width="60" height="54" rx="5" fill="#2563EB"/>
</g>
<path d="M29.1565 23.7307C29.1606 24.3866 29.1565 27.6241 29.1769 28.0537C29.6087 27.4279 39.0403 14.6438 39.4724 14.0691C39.8478 14.0691 43.8208 14 44.3522 14C44.9058 14 44.9058 14 44.9058 14.1433C44.9058 14.4476 44.9994 18.4744 44.9984 19.1207L44.9972 27.3874L44.9963 35.7517C44.9982 37.2511 45.0046 38.7597 44.9944 40.2592C44.9894 40.9968 44.8221 40.9968 44.8221 40.9968C44.2998 40.9928 41.0044 40.9968 40.5584 40.9968C40.4292 40.9641 40.4966 40.764 40.4626 40.7163C40.4626 37.858 40.4253 30.9715 40.423 28.6325L40.4324 25.7688L40.4418 22.9051C40.4466 22.1259 40.4292 21.0522 40.4172 20.2418C40.4172 19.9405 40.4172 19.9732 40.2845 20.0924C39.7725 20.6757 39.2963 21.4259 38.834 22.0661C37.0448 24.5442 35.2935 27.0356 33.486 29.5244C33.0325 29.5826 31.0299 29.5826 30.4162 29.5826C30.1019 29.5826 29.3503 29.5826 28.9619 29.5826C27.9038 28.7541 26.6516 27.4933 25.6946 26.5484C24.4399 25.3092 23.2217 24.2054 21.9805 22.9917C21.2582 22.2873 20.5313 21.5879 19.7999 20.8934C19.4953 20.5999 19.0466 20.2675 18.5221 19.8757C18.5221 20.4637 18.3037 40.2997 18.3037 40.8987C18.3037 41.0275 18.3021 40.9968 17.69 40.9968C17.0779 40.9968 14.6841 40.9968 14.0058 40.9968C14.0058 39.6236 14.0096 37.1851 14.0058 35.6582L14.001 25.3491L14 17.4526C14.0001 16.8631 14 14.3822 14 14.0225C15.5582 14.0225 17.7223 14.0225 19.4019 14.0225C19.8081 14.3792 20.2081 14.8186 20.6094 15.2056C22.2352 16.7811 23.8442 18.3743 25.4362 19.9849L27.5668 22.0955C28.1184 22.6333 28.672 23.1447 29.1565 23.7307Z" fill="white"/>
<defs>
<filter id="filter0_i_215_5" x="0" y="-4" width="60" height="58" filterUnits="userSpaceOnUse" color-interpolation-filters="sRGB">
<feFlood flood-opacity="0" result="BackgroundImageFix"/>
<feBlend mode="normal" in="SourceGraphic" in2="BackgroundImageFix" result="shape"/>
<feColorMatrix in="SourceAlpha" type="matrix" values="0 0 0 0 0 0 0 0 0 0 0 0 0 0 0 0 0 0 127 0" result="hardAlpha"/>
<feOffset dy="-4"/>
<feGaussianBlur stdDeviation="5"/>
<feComposite in2="hardAlpha" operator="arithmetic" k2="-1" k3="1"/>
<feColorMatrix type="matrix" values="0 0 0 0 0 0 0 0 0 0.0903263 0 0 0 0 0.288462 0 0 0 0.25 0"/>
<feBlend mode="normal" in2="shape" result="effect1_innerShadow_215_5"/>
</filter>
</defs>
</svg>
