<svg width="179" height="156" viewBox="0 0 179 156" fill="none" xmlns="http://www.w3.org/2000/svg">
<path d="M53.0649 60.647C53.0702 61.4852 53.0649 65.6225 53.0912 66.1716C53.6499 65.3718 65.8506 49.0345 66.4095 48.3001C66.8952 48.3001 72.0345 48.2118 72.7221 48.2118C73.4381 48.2118 73.4381 48.2118 73.4381 48.3949C73.4381 48.7838 73.5592 53.9298 73.558 54.7557L73.5564 65.32L73.5553 76.0091C73.5576 77.9253 73.5659 79.8531 73.5528 81.7693C73.5463 82.7119 73.3298 82.7119 73.3298 82.7119C72.6543 82.7069 68.3913 82.7119 67.8144 82.7119C67.6473 82.6702 67.7345 82.4145 67.6905 82.3535C67.6905 78.7007 67.6422 69.9003 67.6392 66.9112L67.6513 63.2516L67.6635 59.592C67.6697 58.5962 67.6473 57.2241 67.6317 56.1884C67.6317 55.8034 67.6317 55.8452 67.4601 55.9976C66.7977 56.7429 66.1817 57.7016 65.5837 58.5197C63.2691 61.6866 61.0037 64.8704 58.6655 68.051C58.0789 68.1254 55.4883 68.1254 54.6944 68.1254C54.2879 68.1254 53.3156 68.1254 52.8132 68.1254C51.4444 67.0666 49.8245 65.4554 48.5866 64.2479C46.9634 62.6643 45.3876 61.2537 43.782 59.7026C42.8477 58.8025 41.9074 57.9087 40.9612 57.0211C40.5671 56.6461 39.9867 56.2213 39.3083 55.7206C39.3083 56.472 39.0257 81.8211 39.0257 82.5866C39.0257 82.7512 39.0236 82.7119 38.2318 82.7119C37.44 82.7119 34.3434 82.7119 33.466 82.7119C33.466 80.957 33.4709 77.8408 33.466 75.8896L33.4598 62.7153L33.4585 52.6241C33.4585 51.8707 33.4584 48.7003 33.4585 48.2407C35.4741 48.2407 38.2736 48.2407 40.4463 48.2407C40.9719 48.6964 41.4892 49.2579 42.0083 49.7526C44.1115 51.7659 46.1929 53.8019 48.2523 55.8601L51.0084 58.5574C51.7221 59.2446 52.4381 59.8982 53.0649 60.647Z" fill="#FDFDFD"/>
<path d="M88.8096 56.8209C96.1325 56.035 102.706 61.3349 103.492 68.6578C104.278 75.9806 98.979 82.5538 91.6562 83.3394C84.3334 84.1258 77.7597 78.8271 76.9736 71.5035C76.1877 64.1806 81.4865 57.6069 88.8096 56.8209ZM98.1074 69.3434C97.7038 65.0205 93.8857 61.8327 89.5596 62.2086C85.1949 62.5888 81.9728 66.449 82.3799 70.8111C82.7871 75.1732 86.6678 78.3705 91.0273 77.9361C95.3476 77.5049 98.51 73.6669 98.1074 69.3434Z" fill="#FDFDFD"/>
<path d="M136.942 56.8005C144.276 56.1818 150.725 61.6233 151.348 68.9578C151.972 76.2915 146.535 82.7432 139.201 83.3718C131.861 84.0002 125.402 78.5571 124.778 71.2166C124.154 63.8761 129.601 57.42 136.942 56.8005ZM145.884 69.1814C145.383 64.8746 141.5 61.7795 137.19 62.2507C132.837 62.727 129.705 66.6569 130.21 71.0056C130.717 75.3553 134.669 78.4611 139.014 77.9246C143.318 77.393 146.386 73.4884 145.884 69.1814Z" fill="#FDFDFD"/>
<path d="M110.56 59.7402C113.802 57.3423 115.573 57.0756 119.729 57.0756C120.503 57.0756 123.074 57.0756 123.08 57.2428C123.113 58.2269 123.125 61.2871 123.113 62.4512C121.172 62.4512 117.871 62.4512 116.178 62.7495C115.364 62.8929 114.642 63.5626 114.076 64.1467C113.311 64.9381 112.917 65.783 112.691 66.8535C112.242 68.9869 112.356 81.9598 112.356 82.7119C112.188 82.7119 111.661 82.7078 111.463 82.7119C107.107 82.7537 107.007 82.8373 107.133 82.7119C107.133 82.539 107.175 82.3058 107.107 82.127C107.316 82.127 107.198 82.4763 107.133 82.7119L107.107 82.7642C107.107 82.3046 107.107 81.7927 107.107 81.3331C107.107 81.1242 107.107 81.0147 107.107 80.7899C107.107 79.3693 107.107 76.8205 107.107 75.3999C107.107 74.0628 107.107 68.7981 107.107 67.8788C107.259 68.0635 107.265 68.2114 107.107 67.8788C107.22 65.5097 107.433 63.7607 108.8 61.7734C109.782 62.4169 110.753 63.0796 111.71 63.7615L110.56 59.7402Z" fill="#FDFDFD"/>
</svg>
