<svg width="834" height="249" viewBox="0 0 834 249" fill="none" xmlns="http://www.w3.org/2000/svg">
<path d="M138.559 87.8797C138.597 93.8031 138.559 123.042 138.746 126.922C142.693 121.27 228.917 5.81404 232.866 0.623623C236.299 0.623622 272.619 -4.56176e-05 277.477 2.50264e-09C282.538 4.75178e-05 282.538 0 282.538 1.29393C282.538 4.04233 283.394 40.4091 283.385 46.2457L283.374 120.904L283.366 196.444C283.383 209.986 283.441 223.61 283.348 237.152C283.303 243.814 281.773 243.814 281.773 243.814C276.998 243.778 246.872 243.814 242.795 243.814C241.614 243.518 242.23 241.711 241.919 241.28C241.919 215.466 241.578 153.273 241.557 132.149L241.643 106.286L241.728 80.4238C241.772 73.3865 241.614 63.6898 241.503 56.371C241.503 53.6501 241.503 53.9454 240.291 55.0222C235.61 60.2895 231.257 67.0645 227.03 72.8462C210.673 95.2264 194.664 117.727 178.139 140.204C173.994 140.73 155.686 140.73 150.076 140.73C147.203 140.73 140.331 140.73 136.781 140.73C127.107 133.247 115.66 121.861 106.911 113.327C95.4402 102.136 84.3039 92.1672 72.9566 81.2057C66.3541 74.8446 59.709 68.5279 53.022 62.2555C50.2374 59.605 46.1354 56.603 41.3411 53.0644C41.3411 58.3747 39.3439 237.518 39.3439 242.928C39.3439 244.091 39.329 243.814 33.7333 243.814C28.1376 243.814 6.25419 243.814 0.0532058 243.814C0.0532052 231.412 0.0880494 209.389 0.0532058 195.6L0.00950054 102.496L5.66192e-05 31.1815C0.000647189 25.8575 -2.23712e-05 3.45176 5.79681e-07 0.203632C14.2446 0.203632 34.0287 0.203632 49.3835 0.203632C53.0976 3.4246 56.7538 7.39272 60.4224 10.8883C75.2852 25.1169 89.9952 39.5055 104.549 54.0507L124.026 73.1125C129.07 77.9688 134.13 82.5881 138.559 87.8797Z" fill="#FDFDFD"/>
<path d="M391.169 60.8404C442.921 55.2867 489.376 92.7402 494.933 144.492C500.484 196.243 463.036 242.697 411.284 248.249C359.533 253.806 313.074 216.358 307.52 164.6C301.966 112.849 339.417 66.395 391.169 60.8404ZM456.876 149.335C454.024 118.784 427.041 96.26 396.467 98.9176C365.622 101.605 342.854 128.883 345.731 159.711C348.609 190.538 376.034 213.134 406.844 210.063C437.376 207.016 459.723 179.89 456.876 149.335Z" fill="#FDFDFD"/>
<path d="M731.32 60.6975C783.154 56.3239 828.728 94.7775 833.134 146.612C837.539 198.44 799.117 244.037 747.283 248.479C695.413 252.92 649.768 214.45 645.356 162.574C640.945 110.699 679.445 65.0753 731.32 60.6975ZM794.517 148.195C790.973 117.757 763.536 95.8823 733.074 99.2131C702.311 102.579 680.177 130.354 683.75 161.087C687.329 191.826 715.257 213.771 745.966 209.98C776.38 206.224 798.06 178.632 794.517 148.195Z" fill="#FDFDFD"/>
<path d="M544.877 81.4713C567.791 64.5255 580.306 62.6404 609.68 62.6404C615.149 62.6404 633.316 62.6404 633.356 63.8221C633.593 70.7768 633.675 92.4033 633.593 100.63C619.874 100.63 596.546 100.63 584.581 102.738C578.829 103.752 573.727 108.484 569.728 112.613C564.319 118.205 561.537 124.176 559.943 131.741C556.765 146.818 557.569 238.498 557.569 243.814C556.388 243.814 552.661 243.784 551.261 243.814C520.475 244.109 519.772 244.699 520.658 243.814C520.658 242.591 520.959 240.943 520.475 239.68C521.957 239.68 521.119 242.148 520.658 243.814L520.475 244.183C520.475 240.935 520.475 237.317 520.475 234.069C520.475 232.593 520.475 231.819 520.475 230.23C520.475 220.191 520.475 202.178 520.475 192.139C520.475 182.69 520.475 145.484 520.475 138.988C521.55 140.293 521.597 141.338 520.475 138.988C521.278 122.245 522.778 109.884 532.44 95.8404C539.385 100.388 546.241 105.071 553.003 109.89L544.877 81.4713Z" fill="#FDFDFD"/>
</svg>
