<svg width="742" height="742" viewBox="0 0 742 742" fill="none" xmlns="http://www.w3.org/2000/svg">
<path d="M334.488 339.581C350.886 339.381 367.285 339.317 383.684 339.387C392.852 339.392 402.589 339.133 411.489 339.848C423.804 340.836 423.219 351.601 423.003 360.742C422.886 365.667 423.011 370.786 423.015 375.689L423.017 405.275C423.008 417.529 426.312 433.003 410.874 435.63C385.958 436.596 359.442 435.526 334.421 435.479C328.184 435.468 322.087 430.937 321.99 424.183C321.634 399.197 321.132 373.823 322.261 348.867C322.544 342.756 329.332 340.063 334.488 339.581ZM398.481 433.876C408.388 433.883 420.499 435.573 420.621 422.204C420.834 398.924 421.171 375.171 420.808 351.911C420.787 350.99 420.753 350.069 420.703 349.149C418.795 345.995 416.998 343.04 412.927 342.413C405.904 341.33 396.437 341.642 389.272 341.63L346.209 341.678C337.266 341.832 324.86 339.827 324.5 352.19C323.822 375.425 324.797 398.725 324.078 421.973C323.913 427.334 327.101 432.556 332.706 433.233C340.822 434.212 349.193 433.9 357.375 433.898L398.481 433.876Z" fill="url(#paint0_linear_56_220)"/>
<g filter="url(#filter0_d_56_220)">
<path d="M355.92 388.233C366.833 388.146 377.747 388.152 388.659 388.252C391.064 388.274 397.028 387.786 398.668 389.457C398.54 389.688 398.411 389.891 398.223 390.082C396.545 391.796 391.182 391.276 388.821 391.303C382.208 391.051 349.322 392.3 346.17 389.749C348.379 387.837 353.208 388.226 355.92 388.233Z" fill="#2563EB"/>
</g>
<g filter="url(#filter1_d_56_220)">
<path d="M349.413 370.047C355.902 369.631 394.311 369.191 398.508 370.623L398.679 371.351C397.736 372.367 397.516 372.317 396.204 372.467C387.808 372.815 353.372 373.924 347.589 371.721L347.372 370.766C348.055 370.371 348.645 370.211 349.413 370.047Z" fill="#2563EB"/>
</g>
<g filter="url(#filter2_d_56_220)">
<path d="M347.946 407.9C355.508 407.38 374.237 406.73 381.164 407.813C382.539 408.029 383.051 408.225 383.879 409.331L383.383 410.421L359.913 410.475C356.377 410.483 352.269 410.912 348.798 410.343C347.831 410.184 347.73 410.168 347.176 409.37L347.946 407.9Z" fill="#2563EB"/>
</g>
<path d="M112.25 345.601C117.531 345.361 123.296 345.524 128.617 345.534C145.711 345.565 162.843 345.306 179.928 345.571C190.74 345.739 192.451 354.047 192.347 362.761C192.109 382.748 192.812 402.574 192.091 422.522C191.852 428.965 187.711 432.253 181.79 433.477C159.24 434.412 135.757 433.352 113.11 433.573C108.171 433.621 101.343 430.578 101.343 424.988C101.018 416.078 101.242 406.755 101.018 397.814C101.033 384.067 100.869 370.357 101.308 356.634C101.615 348.91 104.481 345.954 112.25 345.601ZM103.549 426.578C108.509 430.148 109.653 431.684 115.657 431.84C129.326 432.195 143.096 431.878 156.775 431.862C165.053 431.852 174.338 432.685 182.485 431.308C185.652 430.423 187.321 428.806 189.393 426.397C191.292 414.464 189.971 395.035 189.935 382.341C189.914 374.509 190.72 366.172 189.976 358.402C189.742 355.954 189.215 353.09 187.73 351.085C186.269 349.112 183.731 348.01 181.361 347.72C171.849 346.558 161.451 347.506 151.816 347.519C138.386 347.537 124.606 346.867 111.217 347.677C108.037 348.491 106.107 349.578 104.481 352.301C103.723 353.57 103.227 354.832 103.074 356.307C102.865 366.078 102.878 375.924 102.865 385.386C102.85 395.145 102.825 417.648 103.549 426.578Z" fill="url(#paint1_linear_56_220)"/>
<path d="M559.679 345.623C571.556 344.677 583.883 345.35 595.818 345.321C606.817 345.294 618.399 344.524 629.339 345.461C632.009 345.689 635.309 346.202 637.619 347.614C639.979 349.051 641.419 352.209 642.009 354.796C643.169 359.891 643.039 416.154 642.339 423.175C642.129 425.204 641.539 426.94 640.409 428.638C638.169 431.979 634.899 432.896 631.199 433.623C618.039 434.194 604.761 433.874 591.585 433.881C582.513 433.886 567.451 435.056 558.968 432.86C557.123 432.382 554.313 431.597 553.357 429.823C551.906 427.131 551.349 423.379 551.087 420.371C550.381 412.259 550.069 357.796 552.027 352.45C553.363 348.803 556.414 347.209 559.679 345.623ZM553.579 425.394C555.517 428.33 557.378 430.531 561.009 431.306C568.662 432.941 585.923 431.76 594.875 431.751C606.7 431.74 620.629 432.885 632.199 431.342C635.159 430.47 636.939 429.557 638.639 426.868C638.689 426.797 638.729 426.726 638.779 426.655C639.549 425.418 639.579 423.807 639.659 422.387C640.389 409.72 639.749 396.636 639.779 383.934C639.789 377.282 640.779 360.322 639.399 354.575C638.939 352.616 637.909 350.257 636.089 349.185C634.129 348.026 631.029 347.796 628.779 347.642C618.399 346.933 607.638 347.501 597.214 347.515C585.256 347.532 573.047 347.065 561.12 347.703C558.234 348.687 556.018 349.808 554.594 352.691C552.604 356.722 552.988 417.038 553.579 425.394Z" fill="url(#paint2_linear_56_220)"/>
<g filter="url(#filter3_d_56_220)">
<path d="M617.609 372.748C618.149 372.745 618.509 373.068 618.939 373.367L619.129 374.667C617.609 378.909 597.378 397.53 592.932 401.117C586.802 397.394 581.666 391.423 576.491 386.479C575.566 385.313 575.269 385.09 575.132 383.565L575.802 382.777C582.215 382.605 588.118 394.313 592.972 395.578C595.82 393.651 598.143 390.783 600.522 388.314C605.688 382.955 611.364 376.836 617.609 372.748Z" fill="#DEDEDE"/>
</g>
<path d="M382.126 291.156C382.182 291.177 382.237 291.198 382.293 291.218C386.239 292.606 406.413 291.292 411.994 291.274L538.005 291.305C545.325 291.315 561.072 291.768 567.439 291.202C603.414 288.009 593.018 311.927 594.99 336.346C595.175 338.634 594.285 341.107 594.777 343.428L594.144 343.469C588.494 337.619 599.016 300.323 585.621 294.64C582.3 293.231 573.849 293.207 569.966 293.189L421.061 293.125C415.004 293.1 385.044 293.711 381.637 292.587L382.126 291.156Z" fill="url(#paint3_linear_56_220)"/>
<path d="M359.439 290.82C363.549 290.938 359.328 290.862 359.272 290.882C355.326 292.27 335.152 290.956 329.571 290.938L203.56 290.969C196.24 290.979 180.493 291.432 174.126 290.866C138.151 287.673 148.547 311.591 146.575 336.01C146.39 338.298 147.28 340.771 146.788 343.092L147.421 343.133C153.071 337.283 142.549 299.987 155.944 294.304C159.265 292.895 167.716 292.871 171.599 292.853L320.504 292.789C326.561 292.764 360.142 293.913 363.549 292.789L359.439 290.82Z" fill="url(#paint4_linear_56_220)"/>
<g filter="url(#filter4_d_56_220)">
<path d="M364.105 291.22L364.701 291.826L359.549 291.156C360.672 289.91 367.094 289.052 368.759 289.106C372.903 289.242 380.049 288.078 382.126 291.156L381.637 292.587H384.049C382.784 293.844 378.05 294.399 373.549 295.578C371.097 295.6 368.759 295.578 366.549 295.078C358.649 291.677 360.65 292.11 359.549 291.156L364.105 291.22Z" fill="#2563EB"/>
</g>
<path d="M296.262 392.285C296.653 391.895 296.653 391.262 296.262 390.871L289.898 384.507C289.508 384.117 288.874 384.117 288.484 384.507C288.093 384.898 288.093 385.531 288.484 385.922L294.141 391.578L288.484 397.235C288.093 397.626 288.093 398.259 288.484 398.649C288.874 399.04 289.508 399.04 289.898 398.649L296.262 392.285ZM215.549 391.578V392.578H295.555V391.578V390.578H215.549V391.578Z" fill="url(#paint5_linear_56_220)"/>
<path d="M527.263 392.285C527.653 391.895 527.653 391.262 527.263 390.871L520.899 384.507C520.508 384.117 519.875 384.117 519.484 384.507C519.094 384.898 519.094 385.531 519.484 385.922L525.141 391.578L519.484 397.235C519.094 397.626 519.094 398.259 519.484 398.649C519.875 399.04 520.508 399.04 520.899 398.649L527.263 392.285ZM446.549 391.578V392.578H526.555V391.578V390.578H446.549V391.578Z" fill="url(#paint6_linear_56_220)"/>
<path d="M160.112 374.791L160.19 374.968L160.368 375.046L167.316 378.109L160.368 381.173L160.19 381.251L160.112 381.429L157.048 388.378L153.986 381.429L153.907 381.251L153.73 381.173L146.781 378.109L153.73 375.046L153.907 374.968L153.986 374.791L157.048 367.845L160.112 374.791Z" fill="#DEDEDE" stroke="#DEDEDE"/>
<path d="M136.049 379.963L131.717 389.793L121.885 394.126L131.717 398.46L136.049 408.293L140.384 398.461L150.214 394.128L140.384 389.794L136.049 379.963Z" stroke="#DEDEDE"/>
<g filter="url(#filter5_f_56_220)">
<path d="M469.154 441.794C458.438 488.99 425.606 512.816 370.658 513.272C315.71 513.728 277.406 490.13 255.746 442.478C234.086 394.826 234.77 348.2 257.798 302.6C280.826 257 318.446 234.428 370.658 234.884C422.87 235.34 455.018 258.14 467.102 303.284C479.186 348.428 479.87 394.598 469.154 441.794Z" fill="url(#paint7_radial_56_220)"/>
</g>
<defs>
<filter id="filter0_d_56_220" x="336.17" y="378.172" width="72.498" height="23.22" filterUnits="userSpaceOnUse" color-interpolation-filters="sRGB">
<feFlood flood-opacity="0" result="BackgroundImageFix"/>
<feColorMatrix in="SourceAlpha" type="matrix" values="0 0 0 0 0 0 0 0 0 0 0 0 0 0 0 0 0 0 127 0" result="hardAlpha"/>
<feOffset/>
<feGaussianBlur stdDeviation="5"/>
<feComposite in2="hardAlpha" operator="out"/>
<feColorMatrix type="matrix" values="0 0 0 0 0.145098 0 0 0 0 0.388235 0 0 0 0 0.921569 0 0 0 1 0"/>
<feBlend mode="normal" in2="BackgroundImageFix" result="effect1_dropShadow_56_220"/>
<feBlend mode="normal" in="SourceGraphic" in2="effect1_dropShadow_56_220" result="shape"/>
</filter>
<filter id="filter1_d_56_220" x="337.372" y="359.641" width="71.307" height="23.4143" filterUnits="userSpaceOnUse" color-interpolation-filters="sRGB">
<feFlood flood-opacity="0" result="BackgroundImageFix"/>
<feColorMatrix in="SourceAlpha" type="matrix" values="0 0 0 0 0 0 0 0 0 0 0 0 0 0 0 0 0 0 127 0" result="hardAlpha"/>
<feOffset/>
<feGaussianBlur stdDeviation="5"/>
<feComposite in2="hardAlpha" operator="out"/>
<feColorMatrix type="matrix" values="0 0 0 0 0.145098 0 0 0 0 0.388235 0 0 0 0 0.921569 0 0 0 1 0"/>
<feBlend mode="normal" in2="BackgroundImageFix" result="effect1_dropShadow_56_220"/>
<feBlend mode="normal" in="SourceGraphic" in2="effect1_dropShadow_56_220" result="shape"/>
</filter>
<filter id="filter2_d_56_220" x="337.176" y="397.226" width="56.703" height="23.4116" filterUnits="userSpaceOnUse" color-interpolation-filters="sRGB">
<feFlood flood-opacity="0" result="BackgroundImageFix"/>
<feColorMatrix in="SourceAlpha" type="matrix" values="0 0 0 0 0 0 0 0 0 0 0 0 0 0 0 0 0 0 127 0" result="hardAlpha"/>
<feOffset/>
<feGaussianBlur stdDeviation="5"/>
<feComposite in2="hardAlpha" operator="out"/>
<feColorMatrix type="matrix" values="0 0 0 0 0.145098 0 0 0 0 0.388235 0 0 0 0 0.921569 0 0 0 1 0"/>
<feBlend mode="normal" in2="BackgroundImageFix" result="effect1_dropShadow_56_220"/>
<feBlend mode="normal" in="SourceGraphic" in2="effect1_dropShadow_56_220" result="shape"/>
</filter>
<filter id="filter3_d_56_220" x="565.132" y="362.748" width="63.9969" height="48.3689" filterUnits="userSpaceOnUse" color-interpolation-filters="sRGB">
<feFlood flood-opacity="0" result="BackgroundImageFix"/>
<feColorMatrix in="SourceAlpha" type="matrix" values="0 0 0 0 0 0 0 0 0 0 0 0 0 0 0 0 0 0 127 0" result="hardAlpha"/>
<feOffset/>
<feGaussianBlur stdDeviation="5"/>
<feComposite in2="hardAlpha" operator="out"/>
<feColorMatrix type="matrix" values="0 0 0 0 1 0 0 0 0 1 0 0 0 0 1 0 0 0 0.5 0"/>
<feBlend mode="normal" in2="BackgroundImageFix" result="effect1_dropShadow_56_220"/>
<feBlend mode="normal" in="SourceGraphic" in2="effect1_dropShadow_56_220" result="shape"/>
</filter>
<filter id="filter4_d_56_220" x="349.549" y="279" width="44.5" height="26.5837" filterUnits="userSpaceOnUse" color-interpolation-filters="sRGB">
<feFlood flood-opacity="0" result="BackgroundImageFix"/>
<feColorMatrix in="SourceAlpha" type="matrix" values="0 0 0 0 0 0 0 0 0 0 0 0 0 0 0 0 0 0 127 0" result="hardAlpha"/>
<feOffset/>
<feGaussianBlur stdDeviation="5"/>
<feComposite in2="hardAlpha" operator="out"/>
<feColorMatrix type="matrix" values="0 0 0 0 0.145098 0 0 0 0 0.388235 0 0 0 0 0.921569 0 0 0 1 0"/>
<feBlend mode="normal" in2="BackgroundImageFix" result="effect1_dropShadow_56_220"/>
<feBlend mode="normal" in="SourceGraphic" in2="effect1_dropShadow_56_220" result="shape"/>
</filter>
<filter id="filter5_f_56_220" x="0" y="0" width="742" height="742" filterUnits="userSpaceOnUse" color-interpolation-filters="sRGB">
<feFlood flood-opacity="0" result="BackgroundImageFix"/>
<feBlend mode="normal" in="SourceGraphic" in2="BackgroundImageFix" result="shape"/>
<feGaussianBlur stdDeviation="100" result="effect1_foregroundBlur_56_220"/>
</filter>
<linearGradient id="paint0_linear_56_220" x1="372.437" y1="339.346" x2="372.437" y2="436.033" gradientUnits="userSpaceOnUse">
<stop stop-color="#DEDEDE"/>
<stop offset="1" stop-color="#3C3C3C"/>
</linearGradient>
<linearGradient id="paint1_linear_56_220" x1="146.713" y1="345.451" x2="146.713" y2="433.869" gradientUnits="userSpaceOnUse">
<stop stop-color="#DEDEDE"/>
<stop offset="1" stop-color="#3C3C3C"/>
</linearGradient>
<linearGradient id="paint2_linear_56_220" x1="596.709" y1="344.998" x2="596.709" y2="434.197" gradientUnits="userSpaceOnUse">
<stop stop-color="#DEDEDE"/>
<stop offset="1" stop-color="#3C3C3C"/>
</linearGradient>
<linearGradient id="paint3_linear_56_220" x1="381.637" y1="317.192" x2="595.016" y2="317.192" gradientUnits="userSpaceOnUse">
<stop stop-color="#2563EB"/>
<stop offset="0.451923" stop-color="#3C3C3C"/>
</linearGradient>
<linearGradient id="paint4_linear_56_220" x1="363.549" y1="316.856" x2="146.549" y2="316.856" gradientUnits="userSpaceOnUse">
<stop stop-color="#2563EB"/>
<stop offset="0.466346" stop-color="#3C3C3C"/>
</linearGradient>
<linearGradient id="paint5_linear_56_220" x1="215.549" y1="392.078" x2="295.555" y2="392.078" gradientUnits="userSpaceOnUse">
<stop stop-color="#787878" stop-opacity="0"/>
<stop offset="1" stop-color="#DEDEDE"/>
</linearGradient>
<linearGradient id="paint6_linear_56_220" x1="446.549" y1="392.078" x2="526.555" y2="392.078" gradientUnits="userSpaceOnUse">
<stop stop-color="#787878" stop-opacity="0"/>
<stop offset="1" stop-color="#DEDEDE"/>
</linearGradient>
<radialGradient id="paint7_radial_56_220" cx="0" cy="0" r="1" gradientUnits="userSpaceOnUse" gradientTransform="translate(358.354 374.078) scale(118.355 139.201)">
<stop stop-color="#2563EB"/>
<stop offset="1" stop-color="#0050FF" stop-opacity="0.25"/>
</radialGradient>
</defs>
</svg>
